<svg xmlns="http://www.w3.org/2000/svg" viewBox="0 0 32 32">
  <defs>
    <linearGradient id="g" x1="0%" y1="0%" x2="100%" y2="100%">
      <stop offset="0%" stop-color="#6366f1"/>
      <stop offset="100%" stop-color="#8b5cf6"/>
    </linearGradient>
  </defs>
  <rect width="32" height="32" rx="6" fill="#0a0a0f"/>
  <path d="M9.5 8h5.5c2.2 0 4 0.6 5.3 1.8 1.3 1.2 2.2 2.8 2.7 4.7 0.3 1.1 0.5 2.3 0.5 3.5 0 1.2-0.2 2.4-0.5 3.5-0.5 1.9-1.4 3.5-2.7 4.7C19 27.4 17.2 28 15 28H9.5V8zm3.5 3.2v13.6h2c1.4 0 2.5-0.4 3.3-1.3 0.8-0.9 1.4-2 1.7-3.3 0.2-0.8 0.3-1.6 0.3-2.2s-0.1-1.4-0.3-2.2c-0.3-1.3-0.9-2.4-1.7-3.3-0.8-0.9-1.9-1.3-3.3-1.3h-2z" fill="url(#g)"/>
</svg>
