<svg xmlns="http://www.w3.org/2000/svg" viewBox="0 0 800 400">
<defs>
<linearGradient id="a" x2="1"><stop stop-color="#6366f1"/><stop offset="1" stop-color="#06b6d4"/></linearGradient>
<linearGradient id="b1" x2="0" y2="0" y1="1"><stop stop-color="#6366f1" stop-opacity=".15"/><stop offset="1" stop-color="#6366f1" stop-opacity=".6"/></linearGradient>
<linearGradient id="b2" x2="0" y2="0" y1="1"><stop stop-color="#8b5cf6" stop-opacity=".15"/><stop offset="1" stop-color="#8b5cf6" stop-opacity=".6"/></linearGradient>
<linearGradient id="b3" x2="0" y2="0" y1="1"><stop stop-color="#06b6d4" stop-opacity=".15"/><stop offset="1" stop-color="#06b6d4" stop-opacity=".7"/></linearGradient>
<filter id="g"><feGaussianBlur stdDeviation="5"/><feMerge><feMergeNode/><feMergeNode in="SourceGraphic"/></feMerge></filter>
<filter id="s"><feGaussianBlur stdDeviation="3"/><feMerge><feMergeNode/><feMergeNode in="SourceGraphic"/></feMerge></filter>
</defs>
<g opacity=".15" stroke="#2a2a3a" stroke-width=".5">
<line x1="100" y1="80" x2="100" y2="350"/><line x1="200" y1="80" x2="200" y2="350"/><line x1="300" y1="80" x2="300" y2="350"/><line x1="400" y1="80" x2="400" y2="350"/><line x1="500" y1="80" x2="500" y2="350"/><line x1="600" y1="80" x2="600" y2="350"/><line x1="700" y1="80" x2="700" y2="350"/>
<line x1="100" y1="120" x2="700" y2="120"/><line x1="100" y1="170" x2="700" y2="170"/><line x1="100" y1="220" x2="700" y2="220"/><line x1="100" y1="270" x2="700" y2="270"/><line x1="100" y1="320" x2="700" y2="320"/>
</g>
<line x1="100" y1="350" x2="720" y2="350" stroke="#2a2a3a" opacity=".4"/>
<line x1="100" y1="80" x2="100" y2="350" stroke="#2a2a3a" opacity=".4"/>
<rect x="135" y="300" width="35" height="50" rx="3" fill="url(#b1)" stroke="#6366f1" stroke-opacity=".4"/>
<rect x="210" y="270" width="35" height="80" rx="3" fill="url(#b1)" stroke="#6366f1" stroke-opacity=".4"/>
<rect x="285" y="250" width="35" height="100" rx="3" fill="url(#b2)" stroke="#8b5cf6" stroke-opacity=".4"/>
<rect x="360" y="220" width="35" height="130" rx="3" fill="url(#b2)" stroke="#8b5cf6" stroke-opacity=".5"/>
<rect x="435" y="230" width="35" height="120" rx="3" fill="url(#b2)" stroke="#8b5cf6" stroke-opacity=".4"/>
<rect x="510" y="180" width="35" height="170" rx="3" fill="url(#b3)" stroke="#06b6d4" stroke-opacity=".5"/>
<rect x="585" y="150" width="35" height="200" rx="3" fill="url(#b3)" stroke="#06b6d4" stroke-opacity=".5"/>
<rect x="660" y="120" width="35" height="230" rx="3" fill="url(#b3)" stroke="#06b6d4" stroke-opacity=".6" filter="url(#g)"/>
<polyline points="152,300 227,270 302,250 377,220 452,230 527,180 602,150 677,120" fill="none" stroke="url(#a)" stroke-width="2" stroke-linecap="round" stroke-linejoin="round" filter="url(#g)" opacity=".8"/>
<circle cx="152" cy="300" r="4" fill="#6366f1" opacity=".7"/>
<circle cx="227" cy="270" r="4" fill="#6366f1" opacity=".7"/>
<circle cx="302" cy="250" r="4" fill="#8b5cf6" opacity=".7"/>
<circle cx="377" cy="220" r="5" fill="#8b5cf6" opacity=".8" filter="url(#s)"/>
<circle cx="452" cy="230" r="4" fill="#8b5cf6" opacity=".7"/>
<circle cx="527" cy="180" r="5" fill="#06b6d4" opacity=".8" filter="url(#s)"/>
<circle cx="602" cy="150" r="5" fill="#06b6d4" opacity=".8"/>
<circle cx="677" cy="120" r="6" fill="#06b6d4" opacity=".9" filter="url(#g)"/>
<g transform="translate(620,90)"><rect width="48" height="22" rx="5" fill="#1a1a25" stroke="#06b6d4" opacity=".7"/><rect x="8" y="8" width="16" height="3" rx="1.5" fill="#06b6d4" opacity=".4"/><rect x="27" y="8" width="12" height="3" rx="1.5" fill="#06b6d4" opacity=".3"/></g>
<g transform="translate(340,170)"><rect width="42" height="20" rx="5" fill="#1a1a25" stroke="#8b5cf6" opacity=".5"/><rect x="8" y="7" width="14" height="3" rx="1.5" fill="#8b5cf6" opacity=".4"/><rect x="25" y="7" width="8" height="3" rx="1.5" fill="#8b5cf6" opacity=".3"/></g>
<g transform="translate(710,95)" opacity=".5"><path d="M0,15 L7,0 L14,15" fill="none" stroke="#06b6d4" stroke-width="1.5" stroke-linecap="round" stroke-linejoin="round"/><line x1="7" y2="20" x2="7" stroke="#06b6d4" stroke-width="1.5" stroke-linecap="round"/></g>
<circle cx="60" cy="100" r="3" fill="#6366f1" opacity=".2"/><circle cx="750" cy="300" r="3" fill="#06b6d4" opacity=".15"/>
</svg>