<svg xmlns="http://www.w3.org/2000/svg" viewBox="0 0 800 400">
<defs>
<linearGradient id="a" x2="1"><stop stop-color="#06b6d4"/><stop offset="1" stop-color="#6366f1"/></linearGradient>
<linearGradient id="b" x2="1"><stop stop-color="#06b6d4"/><stop offset="1" stop-color="#8b5cf6"/></linearGradient>
<filter id="g"><feGaussianBlur stdDeviation="6"/><feMerge><feMergeNode/><feMergeNode in="SourceGraphic"/></feMerge></filter>
<filter id="s"><feGaussianBlur stdDeviation="3"/><feMerge><feMergeNode/><feMergeNode in="SourceGraphic"/></feMerge></filter>
</defs>
<g transform="translate(300,260)">
<path d="M-150,-10 A150,150 0 0,1 150,-10" fill="none" stroke="#2a2a3a" stroke-width="8" stroke-linecap="round" opacity=".5"/>
<path d="M-150,-10 A150,150 0 0,1 130,-75" fill="none" stroke="url(#a)" stroke-width="8" stroke-linecap="round" filter="url(#g)" opacity=".8"/>
<line x1="-145" y1="-30" x2="-130" y2="-25" stroke="#2a2a3a" stroke-width="1.5" opacity=".4"/>
<line x1="-120" y1="-85" x2="-108" y2="-76" stroke="#2a2a3a" stroke-width="1.5" opacity=".4"/>
<line x1="-70" y1="-130" x2="-62" y2="-116" stroke="#2a2a3a" stroke-width="1.5" opacity=".4"/>
<line x1="0" y1="-150" x2="0" y2="-135" stroke="#06b6d4" stroke-width="1.5" opacity=".5"/>
<line x1="70" y1="-130" x2="62" y2="-116" stroke="#06b6d4" stroke-width="1.5" opacity=".5"/>
<line x1="120" y1="-85" x2="108" y2="-76" stroke="#6366f1" stroke-width="1.5" opacity=".6"/>
<line x1="145" y1="-30" x2="130" y2="-25" stroke="#6366f1" stroke-width="1.5" opacity=".5"/>
<line x2="105" y2="-95" stroke="url(#b)" stroke-width="2.5" stroke-linecap="round" filter="url(#g)"/>
<circle r="8" fill="#1a1a25" stroke="url(#a)" stroke-width="2" filter="url(#s)"/>
<circle r="3" fill="#06b6d4" opacity=".8"/>
</g>
<g transform="translate(300,260)"><path d="M-100,-5 A100,100 0 0,1 100,-5" fill="none" stroke="#2a2a3a" opacity=".2"/></g>
<g opacity=".3">
<line x1="30" y1="140" x2="80" y2="140" stroke="#06b6d4" stroke-width="1.5" stroke-linecap="round"/>
<line x1="20" y1="165" x2="90" y2="165" stroke="#06b6d4" stroke-linecap="round"/>
<line x1="40" y1="190" x2="85" y2="190" stroke="#06b6d4" stroke-width="1.5" stroke-linecap="round"/>
<line x1="15" y1="215" x2="70" y2="215" stroke="#06b6d4" stroke-linecap="round"/>
</g>
<g transform="translate(570,100) rotate(35)" filter="url(#g)" opacity=".6">
<path d="M0,-30 Q3,-25 5,-15 L5,10 L10,20 L5,18 L5,25 L0,20 L-5,25 L-5,18 L-10,20 L-5,10 L-5,-15 Q-3,-25 0,-30Z" fill="none" stroke="url(#a)" stroke-width="1.5"/>
<path d="M-4,25 Q0,35 4,25" fill="none" stroke="#06b6d4" opacity=".5"/>
<path d="M-2,28 Q0,38 2,28" fill="none" stroke="#8b5cf6" opacity=".4"/>
</g>
<g transform="translate(600,240)">
<rect width="65" height="28" rx="6" fill="#1a1a25" stroke="#06b6d4" opacity=".7"/>
<rect x="8" y="10" width="20" height="3" rx="1.5" fill="#06b6d4" opacity=".6"/>
<rect x="32" y="10" width="12" height="3" rx="1.5" fill="#06b6d4" opacity=".3"/>
<circle cx="55" cy="14" r="4" fill="#06b6d4" opacity=".2" filter="url(#s)"/>
</g>
<g transform="translate(680,180)">
<rect width="60" height="28" rx="6" fill="#1a1a25" stroke="#6366f1" opacity=".6"/>
<rect x="8" y="10" width="18" height="3" rx="1.5" fill="#6366f1" opacity=".5"/>
<rect x="30" y="10" width="10" height="3" rx="1.5" fill="#6366f1" opacity=".3"/>
<circle cx="50" cy="14" r="4" fill="#6366f1" opacity=".2" filter="url(#s)"/>
</g>
<g transform="translate(640,310)">
<rect width="62" height="28" rx="6" fill="#1a1a25" stroke="#8b5cf6" opacity=".6"/>
<rect x="8" y="10" width="16" height="3" rx="1.5" fill="#8b5cf6" opacity=".5"/>
<rect x="28" y="10" width="14" height="3" rx="1.5" fill="#8b5cf6" opacity=".3"/>
<circle cx="52" cy="14" r="4" fill="#8b5cf6" opacity=".2" filter="url(#s)"/>
</g>
<g transform="translate(700,80)"><circle r="20" fill="none" stroke="#2a2a3a" stroke-width="2" opacity=".3"/><path d="M0,-20 A20,20 0 1,1 -14,14" fill="none" stroke="#06b6d4" stroke-width="2" stroke-linecap="round" opacity=".5"/></g>
<g transform="translate(75,80)"><circle r="14" fill="none" stroke="#2a2a3a" stroke-width="1.5" opacity=".2"/><path d="M0,-14 A14,14 0 1,1 -10,10" fill="none" stroke="#6366f1" stroke-width="1.5" stroke-linecap="round" opacity=".4"/></g>
<circle cx="520" cy="340" r="3" fill="#06b6d4" opacity=".2"/><circle cx="100" cy="330" r="3" fill="#8b5cf6" opacity=".2"/>
</svg>