<svg xmlns="http://www.w3.org/2000/svg" viewBox="0 0 800 400">
<defs>
<linearGradient id="a" x1="0" y1="0" x2="1" y2="1"><stop stop-color="#6366f1"/><stop offset="1" stop-color="#8b5cf6"/></linearGradient>
<linearGradient id="b" x2="1"><stop stop-color="#6366f1" stop-opacity=".6"/><stop offset="1" stop-color="#8b5cf6" stop-opacity=".2"/></linearGradient>
<filter id="g"><feGaussianBlur stdDeviation="6"/><feMerge><feMergeNode/><feMergeNode in="SourceGraphic"/></feMerge></filter>
<filter id="s"><feGaussianBlur stdDeviation="3"/><feMerge><feMergeNode/><feMergeNode in="SourceGraphic"/></feMerge></filter>
</defs>
<line x1="0" y1="100" x2="800" y2="100" stroke="#2a2a3a" stroke-width=".5" opacity=".3"/>
<line x1="0" y1="200" x2="800" y2="200" stroke="#2a2a3a" stroke-width=".5" opacity=".3"/>
<line x1="0" y1="300" x2="800" y2="300" stroke="#2a2a3a" stroke-width=".5" opacity=".3"/>
<line x1="200" y1="0" x2="200" y2="400" stroke="#2a2a3a" stroke-width=".5" opacity=".3"/>
<line x1="400" y1="0" x2="400" y2="400" stroke="#2a2a3a" stroke-width=".5" opacity=".3"/>
<line x1="600" y1="0" x2="600" y2="400" stroke="#2a2a3a" stroke-width=".5" opacity=".3"/>
<path d="M80,320 Q200,280 300,200 Q400,120 520,160 Q640,200 720,100" fill="none" stroke="url(#a)" stroke-width="2" stroke-dasharray="8,6" opacity=".5"/>
<g transform="translate(120,120)" opacity=".7" filter="url(#s)">
<path d="M30,0 L15,0 Q0,0 0,15 L0,35 Q0,50 -10,50 Q0,50 0,65 L0,85 Q0,100 15,100 L30,100" fill="none" stroke="#6366f1" stroke-width="2.5"/>
</g>
<g transform="translate(620,80)" opacity=".6" filter="url(#s)">
<path d="M0,0 L15,0 Q30,0 30,15 L30,30 Q30,45 40,45 Q30,45 30,60 L30,75 Q30,90 15,90 L0,90" fill="none" stroke="#8b5cf6" stroke-width="2.5"/>
</g>
<g transform="translate(250,80)" filter="url(#g)">
<path d="M0,20 L0,5 Q0,0 5,0 L35,0 L50,20 L35,40 L5,40 Q0,40 0,35Z" fill="#1a1a25" stroke="url(#a)" stroke-width="1.5" opacity=".8"/>
<circle cx="10" cy="20" r="3" fill="#6366f1" opacity=".8"/>
</g>
<g transform="translate(500,240)" filter="url(#g)">
<path d="M0,25 L0,5 Q0,0 5,0 L45,0 L65,25 L45,50 L5,50 Q0,50 0,45Z" fill="#1a1a25" stroke="url(#a)" stroke-width="1.5" opacity=".7"/>
<circle cx="12" cy="25" r="4" fill="#8b5cf6" opacity=".8"/>
</g>
<g transform="translate(380,300)" opacity=".5">
<path d="M0,15 L0,4 Q0,0 4,0 L25,0 L38,15 L25,30 L4,30 Q0,30 0,26Z" fill="#1a1a25" stroke="#6366f1" opacity=".6"/>
<circle cx="8" cy="15" r="2.5" fill="#6366f1" opacity=".6"/>
</g>
<circle cx="200" cy="250" r="22" fill="url(#b)" stroke="url(#a)" stroke-width="1.5" filter="url(#g)" opacity=".7"/>
<circle cx="200" cy="250" r="12" fill="none" stroke="#8b5cf6" opacity=".4"/>
<circle cx="440" cy="140" r="18" fill="url(#b)" stroke="url(#a)" stroke-width="1.5" opacity=".6"/>
<circle cx="440" cy="140" r="9" fill="none" stroke="#6366f1" opacity=".3"/>
<circle cx="660" cy="280" r="25" fill="url(#b)" stroke="url(#a)" stroke-width="1.5" filter="url(#g)" opacity=".7"/>
<circle cx="660" cy="280" r="14" fill="none" stroke="#8b5cf6" opacity=".4"/>
<circle cx="660" cy="280" r="5" fill="#6366f1" opacity=".5"/>
<circle cx="340" cy="160" r="4" fill="#6366f1" opacity=".4"/>
<circle cx="560" cy="120" r="3" fill="#8b5cf6" opacity=".3"/>
<circle cx="160" cy="180" r="3" fill="#6366f1" opacity=".3"/>
<circle cx="700" cy="160" r="5" fill="#8b5cf6" opacity=".2"/>
<circle cx="100" cy="300" r="3" fill="#6366f1" opacity=".25"/>
<circle cx="480" cy="320" r="4" fill="#8b5cf6" opacity=".3"/>
<circle cx="350" cy="260" r="12" fill="none" stroke="#6366f1" opacity=".4"/>
<circle cx="350" cy="260" r="6" fill="#6366f1" opacity=".15"/>
<circle cx="550" cy="340" r="10" fill="none" stroke="#8b5cf6" opacity=".3"/>
<circle cx="300" cy="200" r="5" fill="#6366f1" filter="url(#s)" opacity=".8"/>
<circle cx="520" cy="160" r="5" fill="#8b5cf6" filter="url(#s)" opacity=".8"/>
<circle cx="720" cy="100" r="5" fill="#6366f1" filter="url(#s)" opacity=".8"/>
<circle cx="80" cy="320" r="5" fill="#8b5cf6" filter="url(#s)" opacity=".7"/>
</svg>