<svg xmlns="http://www.w3.org/2000/svg" viewBox="0 0 800 400">
<defs>
<linearGradient id="a" x1="0" y1="0" x2="1" y2="1"><stop stop-color="#6366f1"/><stop offset="1" stop-color="#8b5cf6"/></linearGradient>
<linearGradient id="d" x2="0" y2="1"><stop stop-color="#06b6d4" stop-opacity="0"/><stop offset=".3" stop-color="#6366f1"/><stop offset=".7" stop-color="#8b5cf6"/><stop offset="1" stop-color="#8b5cf6" stop-opacity="0"/></linearGradient>
<filter id="g"><feGaussianBlur stdDeviation="5"/><feMerge><feMergeNode/><feMergeNode in="SourceGraphic"/></feMerge></filter>
<filter id="h"><feGaussianBlur stdDeviation="10"/><feMerge><feMergeNode/><feMergeNode in="SourceGraphic"/></feMerge></filter>
</defs>
<rect x="60" y="60" width="120" height="50" rx="4" fill="#1a1a25" stroke="#06b6d4" opacity=".7"/>
<rect x="190" y="60" width="80" height="50" rx="4" fill="#1a1a25" stroke="#06b6d4" opacity=".5"/>
<rect x="280" y="60" width="60" height="50" rx="4" fill="#06b6d4" opacity=".12" stroke="#06b6d4" stroke-opacity=".4"/>
<rect x="60" y="125" width="80" height="70" rx="4" fill="#06b6d4" opacity=".1" stroke="#06b6d4" stroke-opacity=".5"/>
<rect x="150" y="125" width="190" height="70" rx="4" fill="#1a1a25" stroke="#06b6d4" opacity=".6"/>
<rect x="60" y="210" width="140" height="45" rx="4" fill="#1a1a25" stroke="#06b6d4" opacity=".5"/>
<rect x="210" y="210" width="130" height="45" rx="4" fill="#06b6d4" opacity=".08" stroke="#06b6d4" stroke-opacity=".4"/>
<rect x="60" y="270" width="280" height="35" rx="4" fill="#1a1a25" stroke="#06b6d4" opacity=".4"/>
<rect x="60" y="320" width="100" height="30" rx="4" fill="#06b6d4" opacity=".1" stroke="#06b6d4" stroke-opacity=".3"/>
<rect x="170" y="320" width="170" height="30" rx="4" fill="#1a1a25" stroke="#06b6d4" opacity=".35"/>
<g opacity=".4" fill="#06b6d4"><circle cx="75" cy="78" r="1.5"/><circle cx="82" cy="78" r="1.5"/><circle cx="75" cy="85" r="1.5"/><circle cx="82" cy="85" r="1.5"/></g>
<g opacity=".3" fill="#06b6d4"><circle cx="75" cy="152" r="1.5"/><circle cx="82" cy="152" r="1.5"/><circle cx="75" cy="159" r="1.5"/><circle cx="82" cy="159" r="1.5"/></g>
<line x1="400" y1="20" x2="400" y2="380" stroke="url(#d)" stroke-width="2" filter="url(#h)"/>
<g transform="translate(400,200)" filter="url(#g)"><rect x="-20" y="-20" width="40" height="40" rx="4" fill="#1a1a25" stroke="url(#a)" stroke-width="1.5" transform="rotate(45)"/></g>
<g opacity=".8"><path d="M480,72 L492,80 L480,88" fill="none" stroke="#6366f1" stroke-width="2"/><rect x="500" y="76" width="80" height="4" rx="2" fill="#6366f1" opacity=".5"/><path d="M590,72 L578,80 L590,88" fill="none" stroke="#6366f1" stroke-width="1.5" opacity=".4"/><path d="M595,72 L607,80 L595,88" fill="none" stroke="#8b5cf6" stroke-width="2"/></g>
<rect x="510" y="106" width="120" height="3" rx="1.5" fill="#8b5cf6" opacity=".24"/>
<g opacity=".7"><path d="M510,132 L522,140 L510,148" fill="none" stroke="#6366f1" stroke-width="2"/><rect x="530" y="137" width="60" height="3" rx="1.5" fill="#6366f1" opacity=".4"/><path d="M600,132 L588,140 L600,148" fill="none" stroke="#6366f1" stroke-width="1.5" opacity=".3"/><rect x="605" y="137" width="40" height="3" rx="1.5" fill="#8b5cf6" opacity=".3"/></g>
<rect x="530" y="168" width="90" height="3" rx="1.5" fill="#6366f1" opacity=".18"/>
<g opacity=".6"><path d="M510,195 L522,203 L510,211" fill="none" stroke="#8b5cf6" stroke-width="2"/><rect x="530" y="200" width="50" height="3" rx="1.5" fill="#8b5cf6" opacity=".4"/><path d="M588,195 L576,203 L588,211" fill="none" stroke="#8b5cf6" stroke-width="1.5" opacity=".4"/></g>
<g opacity=".7"><path d="M480,235 L492,243 L480,251" fill="none" stroke="#6366f1" stroke-width="2"/><rect x="500" y="240" width="100" height="3" rx="1.5" fill="#6366f1" opacity=".5"/><path d="M610,235 L598,243 L610,251" fill="none" stroke="#6366f1" stroke-width="1.5" opacity=".4"/></g>
<rect x="510" y="270" width="140" height="3" rx="1.5" fill="#8b5cf6" opacity=".15"/>
<g opacity=".6"><path d="M480,298 L492,306 L480,314" fill="none" stroke="#8b5cf6" stroke-width="2"/><rect x="505" y="303" width="70" height="3" rx="1.5" fill="#8b5cf6" opacity=".4"/><path d="M585,298 L573,306 L585,314" fill="none" stroke="#8b5cf6" stroke-width="1.5" opacity=".4"/></g>
<rect x="500" y="335" width="60" height="3" rx="1.5" fill="#6366f1" opacity=".12"/>
<circle cx="720" cy="80" r="3" fill="#6366f1" opacity=".2"/><circle cx="740" cy="340" r="4" fill="#8b5cf6" opacity=".15"/><circle cx="100" cy="50" r="3" fill="#06b6d4" opacity=".2"/>
</svg>