<svg xmlns="http://www.w3.org/2000/svg" viewBox="0 0 800 400">
<defs>
<linearGradient id="a" x1="0" y1="0" x2="1" y2="1"><stop stop-color="#8b5cf6"/><stop offset="1" stop-color="#06b6d4"/></linearGradient>
<linearGradient id="b" x2="1"><stop stop-color="#8b5cf6" stop-opacity=".4"/><stop offset="1" stop-color="#06b6d4" stop-opacity=".4"/></linearGradient>
<radialGradient id="p"><stop stop-color="#8b5cf6" stop-opacity=".3"/><stop offset="1" stop-color="#8b5cf6" stop-opacity="0"/></radialGradient>
<radialGradient id="q"><stop stop-color="#06b6d4" stop-opacity=".25"/><stop offset="1" stop-color="#06b6d4" stop-opacity="0"/></radialGradient>
<filter id="g"><feGaussianBlur stdDeviation="6"/><feMerge><feMergeNode/><feMergeNode in="SourceGraphic"/></feMerge></filter>
<filter id="h"><feGaussianBlur stdDeviation="12"/><feMerge><feMergeNode/><feMergeNode in="SourceGraphic"/></feMerge></filter>
</defs>
<g stroke="url(#b)" opacity=".4">
<line x1="400" y1="200" x2="300" y2="140"/><line x1="400" y1="200" x2="500" y2="140"/>
<line x1="400" y1="200" x2="320" y2="270"/><line x1="400" y1="200" x2="480" y2="280"/>
<line x1="400" y1="200" x2="350" y2="180"/><line x1="400" y1="200" x2="450" y2="220"/>
<line x1="300" y1="140" x2="220" y2="100"/><line x1="300" y1="140" x2="240" y2="180"/>
<line x1="300" y1="140" x2="200" y2="160"/><line x1="500" y1="140" x2="580" y2="100"/>
<line x1="500" y1="140" x2="560" y2="180"/><line x1="500" y1="140" x2="600" y2="150"/>
<line x1="320" y1="270" x2="240" y2="300"/><line x1="320" y1="270" x2="280" y2="330"/>
<line x1="480" y1="280" x2="560" y2="310"/><line x1="480" y1="280" x2="520" y2="340"/>
<line x1="300" y1="140" x2="350" y2="180" opacity=".3"/>
<line x1="500" y1="140" x2="450" y2="220" opacity=".3"/>
<line x1="320" y1="270" x2="350" y2="180" opacity=".3"/>
<line x1="480" y1="280" x2="450" y2="220" opacity=".3"/>
<line x1="220" y1="100" x2="160" y2="70" opacity=".2"/><line x1="580" y1="100" x2="650" y2="70" opacity=".2"/>
<line x1="240" y1="300" x2="170" y2="320" opacity=".2"/><line x1="560" y1="310" x2="640" y2="330" opacity=".2"/>
<line x1="200" y1="160" x2="130" y2="200" opacity=".2"/><line x1="600" y1="150" x2="670" y2="180" opacity=".2"/>
<line x1="280" y1="330" x2="220" y2="360" opacity=".2"/><line x1="520" y1="340" x2="590" y2="370" opacity=".2"/>
</g>
<circle cx="400" cy="200" r="50" fill="url(#p)" filter="url(#h)"/>
<circle cx="300" cy="140" r="30" fill="url(#q)"/>
<circle cx="500" cy="140" r="30" fill="url(#p)"/>
<circle cx="400" cy="200" r="14" fill="#1a1a25" stroke="url(#a)" stroke-width="2" filter="url(#g)" opacity=".9"/>
<circle cx="400" cy="200" r="6" fill="#8b5cf6" opacity=".6"/>
<circle cx="300" cy="140" r="10" fill="#1a1a25" stroke="#8b5cf6" stroke-width="1.5" filter="url(#g)" opacity=".8"/>
<circle cx="300" cy="140" r="4" fill="#8b5cf6" opacity=".5"/>
<circle cx="500" cy="140" r="10" fill="#1a1a25" stroke="#06b6d4" stroke-width="1.5" filter="url(#g)" opacity=".8"/>
<circle cx="500" cy="140" r="4" fill="#06b6d4" opacity=".5"/>
<circle cx="350" cy="180" r="8" fill="#1a1a25" stroke="#8b5cf6" stroke-width="1.5" opacity=".7"/>
<circle cx="450" cy="220" r="8" fill="#1a1a25" stroke="#06b6d4" stroke-width="1.5" opacity=".7"/>
<circle cx="320" cy="270" r="9" fill="#1a1a25" stroke="#8b5cf6" stroke-width="1.5" opacity=".7"/>
<circle cx="480" cy="280" r="9" fill="#1a1a25" stroke="#06b6d4" stroke-width="1.5" opacity=".7"/>
<circle cx="220" cy="100" r="6" fill="#1a1a25" stroke="#8b5cf6" opacity=".6"/>
<circle cx="240" cy="180" r="5" fill="#1a1a25" stroke="#8b5cf6" opacity=".5"/>
<circle cx="200" cy="160" r="5" fill="#1a1a25" stroke="#8b5cf6" opacity=".45"/>
<circle cx="580" cy="100" r="6" fill="#1a1a25" stroke="#06b6d4" opacity=".6"/>
<circle cx="560" cy="180" r="5" fill="#1a1a25" stroke="#06b6d4" opacity=".5"/>
<circle cx="600" cy="150" r="5" fill="#1a1a25" stroke="#06b6d4" opacity=".45"/>
<circle cx="240" cy="300" r="5" fill="#1a1a25" stroke="#8b5cf6" opacity=".5"/>
<circle cx="280" cy="330" r="5" fill="#1a1a25" stroke="#8b5cf6" opacity=".4"/>
<circle cx="560" cy="310" r="5" fill="#1a1a25" stroke="#06b6d4" opacity=".5"/>
<circle cx="520" cy="340" r="5" fill="#1a1a25" stroke="#06b6d4" opacity=".4"/>
<circle cx="160" cy="70" r="3" fill="#8b5cf6" opacity=".25"/>
<circle cx="150" cy="130" r="3" fill="#8b5cf6" opacity=".2"/>
<circle cx="130" cy="200" r="3" fill="#8b5cf6" opacity=".2"/>
<circle cx="650" cy="70" r="3" fill="#06b6d4" opacity=".25"/>
<circle cx="660" cy="120" r="3" fill="#06b6d4" opacity=".2"/>
<circle cx="670" cy="180" r="3" fill="#06b6d4" opacity=".2"/>
<circle cx="170" cy="320" r="3" fill="#8b5cf6" opacity=".2"/>
<circle cx="640" cy="330" r="3" fill="#06b6d4" opacity=".2"/>
<circle cx="80" cy="50" r="2" fill="#8b5cf6" opacity=".1"/>
<circle cx="720" cy="50" r="2" fill="#06b6d4" opacity=".1"/>
</svg>